# xmcd
#
# Track frame offsets:
#	151
#	15495
#	28766
#	40739
#	60827
#	76484
#	93015
#	109049
#	124437
#	165200
#	180107
#	209042
#	223152
#	243685
#
# Disc length: 3669 seconds
#
# Revision: 0
# Processed by: cddbd v1.5.2PL0 Copyright (c) Steve Scherf et al.
# Submitted via: dBpowerAMP V4.0
#
DISCID=b00e530e
DTITLE=cc - cc
DYEAR=1900
DGENRE=Acid Jazz
TTITLE0=a
TTITLE1=b
TTITLE2=c
TTITLE3=d
TTITLE4=e
TTITLE5=f
TTITLE6=g
TTITLE7=h
TTITLE8=i
TTITLE9=j
TTITLE10=k
TTITLE11=l
TTITLE12=m
TTITLE13=n
EXTD=
EXTT0=
EXTT1=
EXTT2=
EXTT3=
EXTT4=
EXTT5=
EXTT6=
EXTT7=
EXTT8=
EXTT9=
EXTT10=
EXTT11=
EXTT12=
EXTT13=
PLAYORDER=
